<?xml version="1.0" encoding="iso-8859-1"?>
<!-- Generator: Adobe Illustrator 19.0.0, SVG Export Plug-In . SVG Version: 6.00 Build 0)  -->
<svg version="1.1" id="Capa_1" xmlns="http://www.w3.org/2000/svg" xmlns:xlink="http://www.w3.org/1999/xlink" x="0px" y="0px"
	 viewBox="0 0 463.654 463.654" style="enable-background:new 0 0 463.654 463.654;" xml:space="preserve">
<path style="fill:#75462E;" d="M39.827,71.654h384c8.837,0,16,7.163,16,16v352c0,8.837-7.163,16-16,16h-384c-8.837,0-16-7.163-16-16
	v-352C23.827,78.818,30.991,71.654,39.827,71.654z"/>
<path style="fill:#A3603E;" d="M38.915,71.654h385.824c8.333,0,15.088,6.755,15.088,15.088v0v112.912l0,0h-416l0,0V86.742
	C23.827,78.409,30.582,71.654,38.915,71.654L38.915,71.654z"/>
<g>
	<path style="fill:#C7C7C7;" d="M55.827,423.654v-32h-32v48c0,8.837,7.163,16,16,16h48v-32H55.827z"/>
	<path style="fill:#C7C7C7;" d="M407.827,423.654h-32v32h48c8.837,0,16-7.163,16-16v-48h-32V423.654z"/>
	<path style="fill:#C7C7C7;" d="M55.827,103.654h352v96h-352V103.654z"/>
</g>
<path style="fill:#DEDEDE;" d="M71.827,119.654h320v80h-320V119.654z"/>
<g>
	<circle style="fill:#737373;" cx="167.827" cy="151.654" r="16"/>
	<circle style="fill:#737373;" cx="231.827" cy="151.654" r="16"/>
	<circle style="fill:#737373;" cx="295.827" cy="151.654" r="16"/>
	<circle style="fill:#737373;" cx="359.827" cy="151.654" r="16"/>
</g>
<path style="fill:#ABABAB;" d="M55.827,199.654h352v224h-352V199.654z"/>
<path style="fill:#F46B27;" d="M79.827,143.654h16v16h-16V143.654z"/>
<path style="fill:#88B337;" d="M111.827,143.654h16v16h-16V143.654z"/>
<g>
	<path style="fill:#C7C7C7;" d="M95.827,31.654h48l0,0v40l0,0h-64l0,0v-24C79.827,38.818,86.991,31.654,95.827,31.654z"/>
	<path style="fill:#C7C7C7;" d="M319.827,31.654h48c8.837,0,16,7.163,16,16v24l0,0h-64l0,0V31.654L319.827,31.654z"/>
</g>
<g>
	<path style="fill:#666666;" d="M319.827,63.654l-12.224-6.112c-23.528-11.762-49.471-17.886-75.776-17.888
		c-26.305,0.002-52.248,6.126-75.776,17.888l-12.224,6.112v-32l12.224-6.112c23.528-11.762,49.471-17.886,75.776-17.888
		c26.305,0.002,52.248,6.126,75.776,17.888l12.224,6.112V63.654z"/>
	<g>
		<path id="SVGCleanerId_0" style="fill:#666666;" d="M79.827,223.654h64v16h-64V223.654z"/>
	</g>
	<g>
		<path id="SVGCleanerId_1" style="fill:#666666;" d="M159.827,223.654h64v16h-64V223.654z"/>
	</g>
	<g>
		<path id="SVGCleanerId_2" style="fill:#666666;" d="M239.827,223.654h64v16h-64V223.654z"/>
	</g>
	<g>
		<path id="SVGCleanerId_3" style="fill:#666666;" d="M319.827,223.654h64v16h-64V223.654z"/>
	</g>
	<g>
		<path id="SVGCleanerId_4" style="fill:#666666;" d="M79.827,255.654h64v16h-64V255.654z"/>
	</g>
	<g>
		<path id="SVGCleanerId_5" style="fill:#666666;" d="M159.827,255.654h64v16h-64V255.654z"/>
	</g>
	<g>
		<path id="SVGCleanerId_6" style="fill:#666666;" d="M239.827,255.654h64v16h-64V255.654z"/>
	</g>
	<g>
		<path id="SVGCleanerId_7" style="fill:#666666;" d="M319.827,255.654h64v16h-64V255.654z"/>
	</g>
	<g>
		<path id="SVGCleanerId_8" style="fill:#666666;" d="M79.827,287.654h64v16h-64V287.654z"/>
	</g>
	<g>
		<path id="SVGCleanerId_9" style="fill:#666666;" d="M159.827,287.654h64v16h-64V287.654z"/>
	</g>
	<g>
		<path id="SVGCleanerId_10" style="fill:#666666;" d="M239.827,287.654h64v16h-64V287.654z"/>
	</g>
	<g>
		<path id="SVGCleanerId_11" style="fill:#666666;" d="M319.827,287.654h64v16h-64V287.654z"/>
	</g>
	<g>
		<path id="SVGCleanerId_12" style="fill:#666666;" d="M79.827,319.654h64v16h-64V319.654z"/>
	</g>
	<g>
		<path id="SVGCleanerId_13" style="fill:#666666;" d="M159.827,319.654h64v16h-64V319.654z"/>
	</g>
	<g>
		<path id="SVGCleanerId_14" style="fill:#666666;" d="M239.827,319.654h64v16h-64V319.654z"/>
	</g>
	<g>
		<path id="SVGCleanerId_15" style="fill:#666666;" d="M319.827,319.654h64v16h-64V319.654z"/>
	</g>
	<g>
		<path id="SVGCleanerId_16" style="fill:#666666;" d="M79.827,351.654h64v16h-64V351.654z"/>
	</g>
	<g>
		<path id="SVGCleanerId_17" style="fill:#666666;" d="M159.827,351.654h64v16h-64V351.654z"/>
	</g>
	<g>
		<path id="SVGCleanerId_18" style="fill:#666666;" d="M239.827,351.654h64v16h-64V351.654z"/>
	</g>
	<g>
		<path id="SVGCleanerId_19" style="fill:#666666;" d="M319.827,351.654h64v16h-64V351.654z"/>
	</g>
	<g>
		<path id="SVGCleanerId_20" style="fill:#666666;" d="M79.827,383.654h64v16h-64V383.654z"/>
	</g>
	<g>
		<path id="SVGCleanerId_21" style="fill:#666666;" d="M159.827,383.654h64v16h-64V383.654z"/>
	</g>
	<g>
		<path id="SVGCleanerId_22" style="fill:#666666;" d="M239.827,383.654h64v16h-64V383.654z"/>
	</g>
	<g>
		<path id="SVGCleanerId_23" style="fill:#666666;" d="M319.827,383.654h64v16h-64V383.654z"/>
	</g>
</g>
<path d="M167.827,175.654c13.255,0,24-10.745,24-24s-10.745-24-24-24s-24,10.745-24,24S154.572,175.654,167.827,175.654z
	 M167.827,143.654c4.418,0,8,3.582,8,8s-3.582,8-8,8s-8-3.582-8-8S163.409,143.654,167.827,143.654z"/>
<path d="M231.827,175.654c13.255,0,24-10.745,24-24s-10.745-24-24-24c-13.255,0-24,10.745-24,24S218.572,175.654,231.827,175.654z
	 M231.827,143.654c4.418,0,8,3.582,8,8s-3.582,8-8,8s-8-3.582-8-8S227.409,143.654,231.827,143.654z"/>
<path d="M295.827,175.654c13.255,0,24-10.745,24-24s-10.745-24-24-24s-24,10.745-24,24S282.572,175.654,295.827,175.654z
	 M295.827,143.654c4.418,0,8,3.582,8,8s-3.582,8-8,8s-8-3.582-8-8S291.409,143.654,295.827,143.654z"/>
<path d="M359.827,175.654c13.255,0,24-10.745,24-24s-10.745-24-24-24s-24,10.745-24,24S346.572,175.654,359.827,175.654z
	 M359.827,143.654c4.418,0,8,3.582,8,8s-3.582,8-8,8s-8-3.582-8-8S355.409,143.654,359.827,143.654z"/>
<path id="SVGCleanerId_0_1_" d="M79.827,223.654h64v16h-64V223.654z"/>
<path id="SVGCleanerId_1_1_" d="M159.827,223.654h64v16h-64V223.654z"/>
<path id="SVGCleanerId_2_1_" d="M239.827,223.654h64v16h-64V223.654z"/>
<path id="SVGCleanerId_3_1_" d="M319.827,223.654h64v16h-64V223.654z"/>
<path id="SVGCleanerId_4_1_" d="M79.827,255.654h64v16h-64V255.654z"/>
<path id="SVGCleanerId_5_1_" d="M159.827,255.654h64v16h-64V255.654z"/>
<path id="SVGCleanerId_6_1_" d="M239.827,255.654h64v16h-64V255.654z"/>
<path id="SVGCleanerId_7_1_" d="M319.827,255.654h64v16h-64V255.654z"/>
<path id="SVGCleanerId_8_1_" d="M79.827,287.654h64v16h-64V287.654z"/>
<path id="SVGCleanerId_9_1_" d="M159.827,287.654h64v16h-64V287.654z"/>
<path id="SVGCleanerId_10_1_" d="M239.827,287.654h64v16h-64V287.654z"/>
<path id="SVGCleanerId_11_1_" d="M319.827,287.654h64v16h-64V287.654z"/>
<path id="SVGCleanerId_12_1_" d="M79.827,319.654h64v16h-64V319.654z"/>
<path id="SVGCleanerId_13_1_" d="M159.827,319.654h64v16h-64V319.654z"/>
<path id="SVGCleanerId_14_1_" d="M239.827,319.654h64v16h-64V319.654z"/>
<path id="SVGCleanerId_15_1_" d="M319.827,319.654h64v16h-64V319.654z"/>
<path id="SVGCleanerId_16_1_" d="M79.827,351.654h64v16h-64V351.654z"/>
<path id="SVGCleanerId_17_1_" d="M159.827,351.654h64v16h-64V351.654z"/>
<path id="SVGCleanerId_18_1_" d="M239.827,351.654h64v16h-64V351.654z"/>
<path id="SVGCleanerId_19_1_" d="M319.827,351.654h64v16h-64V351.654z"/>
<path id="SVGCleanerId_20_1_" d="M79.827,383.654h64v16h-64V383.654z"/>
<path id="SVGCleanerId_21_1_" d="M159.827,383.654h64v16h-64V383.654z"/>
<path id="SVGCleanerId_22_1_" d="M239.827,383.654h64v16h-64V383.654z"/>
<path id="SVGCleanerId_23_1_" d="M319.827,383.654h64v16h-64V383.654z"/>
<path d="M424.739,63.654h-32.912v-16c0-13.255-10.745-24-24-24h-46.112l-10.536-5.264c-50.06-24.52-108.644-24.52-158.704,0
	l-10.536,5.264H95.827c-13.255,0-24,10.745-24,24v16H38.915c-12.744,0.018-23.07,10.344-23.088,23.088v352.912
	c0,13.255,10.745,24,24,24l0,0h384c13.255,0,24-10.745,24-24l0,0V86.742C447.81,73.999,437.483,63.672,424.739,63.654
	L424.739,63.654z M367.827,431.654v16h-272v-16H367.827z M87.827,415.654h-24v-208h336v208H87.827z M31.827,207.654h16v176h-16
	V207.654z M399.827,191.654h-336v-80h336V191.654z M415.827,207.654h16v176h-16V207.654z M375.827,47.654v16h-48v-24h40
	C372.245,39.654,375.827,43.236,375.827,47.654z M159.635,32.702c45.542-22.312,98.842-22.312,144.384,0l7.808,3.896v14.12
	l-0.648-0.328c-50.06-24.52-108.644-24.52-158.704,0l-0.648,0.328v-14.12L159.635,32.702z M301.755,63.654H161.899
	C206.187,42.806,257.467,42.806,301.755,63.654z M87.827,47.654c0-4.418,3.582-8,8-8h40v24h-48V47.654z M79.827,79.654h344
	c4.418,0,8,3.582,8,8v104h-16v-88c0-4.418-3.582-8-8-8h-352c-4.418,0-8,3.582-8,8v88h-16v-104c0-4.418,3.582-8,8-8H79.827z
	 M39.827,447.654c-4.418,0-8-3.582-8-8v-40h16v24c0,4.418,3.582,8,8,8h24v16H39.827z M431.827,439.654c0,4.418-3.582,8-8,8h-40v-16
	h24c4.418,0,8-3.582,8-8v-24h16V439.654z"/>
<g>
</g>
<g>
</g>
<g>
</g>
<g>
</g>
<g>
</g>
<g>
</g>
<g>
</g>
<g>
</g>
<g>
</g>
<g>
</g>
<g>
</g>
<g>
</g>
<g>
</g>
<g>
</g>
<g>
</g>
</svg>
