<?xml version="1.0" encoding="iso-8859-1"?>
<!-- Generator: Adobe Illustrator 19.0.0, SVG Export Plug-In . SVG Version: 6.00 Build 0)  -->
<svg version="1.1" id="Capa_1" xmlns="http://www.w3.org/2000/svg" xmlns:xlink="http://www.w3.org/1999/xlink" x="0px" y="0px"
	 viewBox="0 0 480.025 480.025" style="enable-background:new 0 0 480.025 480.025;" xml:space="preserve">
<path style="fill:#FDB62F;" d="M259.546,183.879l-9.976-9.976c-18.698-18.698-49.014-18.698-67.712,0l-22.504,22.504
	c-14.793,14.794-33.446,25.134-53.832,29.84l-10.968,2.528c-60.073,13.866-97.531,73.806-83.664,133.879
	c4.705,20.382,15.042,39.033,29.832,53.825l22.704,22.704c43.594,43.59,114.27,43.59,157.864,0
	c14.797-14.791,25.137-33.445,29.84-53.832l2.528-10.968c4.706-20.386,15.046-39.039,29.84-53.832l22.504-22.504
	c18.698-18.698,18.698-49.014,0-67.712l-9.976-9.976"/>
<path style="fill:#FFA83D;" d="M306.002,230.335l-9.976-9.976l-11.44-11.44c-7.166,15.243-15.096,30.116-23.76,44.56
	c10.212,29.118-5.114,61.002-34.232,71.214c-6.954,2.439-14.322,3.478-21.68,3.057c-42.322,45.344-95.433,79.24-154.384,98.528
	l12.896,12.896c43.594,43.59,114.27,43.59,157.864,0c14.797-14.791,25.137-33.445,29.84-53.832l2.528-10.968
	c4.706-20.386,15.046-39.039,29.84-53.832l22.504-22.504C324.694,279.342,324.694,249.032,306.002,230.335L306.002,230.335z"/>
<path style="fill:#A3603E;" d="M216.026,231.879l176-176l32,32l-176,176"/>
<circle style="fill:#F46B27;" cx="208.026" cy="271.879" r="40"/>
<path style="fill:#A3603E;" d="M72.027,343.88l24.002-24.002l64.002,64.002l-24.002,24.002L72.027,343.88z"/>
<g>
	<path style="fill:#8F5436;" d="M72.023,343.889l11.998-11.998l64.002,64.002l-11.998,11.998L72.023,343.889z"/>
	<path style="fill:#8F5436;" d="M364.028,83.884l28.002-28.002l32.001,32.001l-28.002,28.002L364.028,83.884z"/>
</g>
<path style="fill:#75462E;" d="M426.369,101.532l11.314-11.314l15.998,15.998l-11.314,11.314L426.369,101.532z"/>
<path style="fill:#A3603E;" d="M432.026,7.879c5.122,0,10.034,2.034,13.656,5.656l20.688,20.688
	c3.622,3.622,5.656,8.534,5.656,13.656c0,5.122-2.034,10.034-5.656,13.656l-36.688,36.688c-3.622,3.622-8.534,5.656-13.656,5.656
	c-5.122,0-10.034-2.034-13.656-5.656l-20.688-20.688c-3.622-3.622-5.656-8.534-5.656-13.656c0-5.122,2.034-10.034,5.656-13.656
	l36.688-36.688C421.992,9.913,426.904,7.879,432.026,7.879z"/>
<g>
	<path style="fill:#75462E;" d="M386.371,13.535l11.314-11.314l15.998,15.998l-11.314,11.314L386.371,13.535z"/>
	<path style="fill:#75462E;" d="M362.371,37.532l11.314-11.314l15.998,15.998L378.369,53.53L362.371,37.532z"/>
	<path style="fill:#75462E;" d="M450.385,77.535l11.314-11.314l15.998,15.998l-11.314,11.314L450.385,77.535z"/>
</g>
<path d="M101.682,314.223c-3.124-3.123-8.188-3.123-11.312,0l-24,24c-3.123,3.124-3.123,8.188,0,11.312l64,64
	c3.124,3.123,8.188,3.123,11.312,0l24-24c3.123-3.124,3.123-8.188,0-11.312L101.682,314.223z M136.026,396.567l-52.688-52.688
	l12.688-12.688l52.688,52.688L136.026,396.567z"/>
<path d="M451.338,7.879c-10.814-10.301-27.81-10.301-38.624,0l-4.688,4.688L397.682,2.223L386.37,13.535l10.344,10.344
	l-12.688,12.688l-10.344-10.344L362.37,37.535l10.664,10.664c-3.256,4.58-5.007,10.06-5.008,15.68
	c0.03,1.433,0.169,2.861,0.416,4.272L261.786,174.807l-6.56-6.56c-21.817-21.822-57.193-21.826-79.015-0.009
	c-0.003,0.003-0.006,0.006-0.009,0.009l-22.504,22.504c-13.731,13.739-31.049,23.339-49.976,27.704l-10.96,2.528
	c-64.376,14.85-104.524,79.076-89.674,143.452c5.04,21.851,16.121,41.844,31.978,57.7l22.704,22.704
	c46.723,46.716,122.47,46.71,169.185-0.013c15.848-15.851,26.925-35.835,31.967-57.675l2.536-10.968
	c4.359-18.928,13.957-36.247,27.696-49.976l22.504-22.504c21.786-21.837,21.786-57.187,0-79.024l-6.56-6.56l106.656-106.656
	c1.411,0.247,2.839,0.386,4.272,0.416c5.617-0.001,11.095-1.752,15.672-5.008l10.672,10.664l11.312-11.312l-10.344-10.344
	l12.688-12.688l10.344,10.344l11.312-11.312l-10.344-10.344l4.688-4.68c10.666-10.669,10.666-27.963,0-38.632L451.338,7.879z
	 M396.714,103.879L250.69,249.903c-4.567-8.887-11.801-16.121-20.688-20.688L376.026,83.191L396.714,103.879z M230.65,249.247
	c12.499,12.494,12.503,32.756,0.009,45.255c-0.003,0.003-0.006,0.006-0.009,0.009c-12.668,12.069-32.58,12.069-45.248,0
	c-12.499-12.495-12.503-32.757-0.008-45.256C197.889,236.756,218.15,236.752,230.65,249.247z M300.346,235.991
	c15.544,15.587,15.544,40.813,0,56.4l-22.504,22.504c-15.868,15.846-26.957,35.837-32,57.688l-2.528,10.968
	c-12.865,55.765-68.501,90.543-124.266,77.678c-18.928-4.367-36.247-13.966-49.982-27.702l-22.688-22.704
	c-40.47-40.471-40.47-106.087,0.002-146.558c13.734-13.733,31.05-23.331,49.974-27.698l10.96-2.52
	c21.853-5.043,41.847-16.132,57.696-32l22.512-22.504c15.57-15.572,40.815-15.574,56.388-0.004c0.001,0.001,0.003,0.003,0.004,0.004
	l6.56,6.56l-37.976,37.976c-1.48-0.12-2.968-0.2-4.472-0.2c-26.51,0-48,21.49-48,48s21.49,48,48,48s48-21.49,48-48
	c0-1.504-0.08-2.992-0.216-4.472l37.976-37.976L300.346,235.991z M408.026,92.567l-20.688-20.688c-4.415-4.42-4.415-11.58,0-16
	l36.688-36.68c4.417-4.418,11.579-4.419,15.998-0.002c0.001,0.001,0.002,0.002,0.002,0.002l20.688,20.68
	c4.415,4.42,4.415,11.58,0,16l-36.688,36.68C419.553,96.84,412.503,96.844,408.026,92.567z"/>
<g>
</g>
<g>
</g>
<g>
</g>
<g>
</g>
<g>
</g>
<g>
</g>
<g>
</g>
<g>
</g>
<g>
</g>
<g>
</g>
<g>
</g>
<g>
</g>
<g>
</g>
<g>
</g>
<g>
</g>
</svg>
