<?xml version="1.0" encoding="iso-8859-1"?>
<!-- Generator: Adobe Illustrator 19.0.0, SVG Export Plug-In . SVG Version: 6.00 Build 0)  -->
<svg version="1.1" id="Capa_1" xmlns="http://www.w3.org/2000/svg" xmlns:xlink="http://www.w3.org/1999/xlink" x="0px" y="0px"
	 viewBox="0 0 480 480" style="enable-background:new 0 0 480 480;" xml:space="preserve">
<path style="fill:#2A7DB8;" d="M364.002,336h64v16h-64V336z"/>
<g>
	<path style="fill:#4398D1;" d="M436.002,312L436.002,312c8.837,0,16,7.163,16,16v32c0,8.837-7.163,16-16,16l0,0
		c-8.837,0-16-7.163-16-16v-32C420.002,319.163,427.165,312,436.002,312z"/>
	<path style="fill:#4398D1;" d="M268.002,8h-96l-10.664,32h117.328L268.002,8z"/>
</g>
<path style="fill:#87CED9;" d="M278.666,40H161.338l-88,264h293.328L278.666,40z"/>
<path style="fill:#78C3CF;" d="M278.666,40h-34.664l88,264h34.664L278.666,40z"/>
<path style="fill:#59B3C2;" d="M188.002,72v240h64V72H188.002z M236.002,88v16h-32V88H236.002z M204.002,232v-16h32v16H204.002z
	 M236.002,248v16h-32v-16H236.002z M204.002,200v-16h32v16H204.002z M204.002,168v-16h32v16H204.002z M204.002,136v-16h32v16
	H204.002z M204.002,296v-16h32v16H204.002z"/>
<g>
	<path style="fill:#666666;" d="M60.002,440h32l0,0v16c0,8.837-7.163,16-16,16s-16-7.163-16-16V440L60.002,440z"/>
	<path style="fill:#666666;" d="M348.002,440h32l0,0v16c0,8.837-7.163,16-16,16s-16-7.163-16-16V440L348.002,440z"/>
</g>
<path style="fill:#CF4031;" d="M189.266,353.362l146.066-326.17l14.603,6.539l-146.066,326.17L189.266,353.362z"/>
<path style="fill:#DE4C3C;" d="M291.505,86.639l43.92,19.366l-25.821,58.56l-43.92-19.366L291.505,86.639z"/>
<path style="fill:#4398D1;" d="M412.002,440l-45.336-136H73.338L28.002,440H412.002z"/>
<path style="fill:#3E8CC7;" d="M366.666,304h-26.664l-136,136h208L366.666,304z"/>
<path d="M436.002,384c13.255,0,24-10.745,24-24v-32c0-13.255-10.745-24-24-24s-24,10.745-24,24v8H385.77l-61.6-184.712
	l21.768-49.376l-22.264-9.832l26.144-58.4l-14.616-6.48l-26.168,58.4l-7.88-3.472l-25.56-76.656
	c-1.089-3.268-4.147-5.473-7.592-5.472h-96c-3.445-0.001-6.503,2.204-7.592,5.472l-144,432c-1.396,4.192,0.87,8.722,5.062,10.118
	c0.816,0.272,1.67,0.41,2.53,0.41h24v8c0.007,13.255,10.759,23.994,24.014,23.986c13.244-0.007,23.979-10.742,23.986-23.986v-8h240
	v8c0,13.255,10.745,24,24,24s24-10.745,24-24v-8h24c4.418,0.001,8.001-3.58,8.002-7.998c0-0.86-0.138-1.714-0.41-2.53L391.106,352
	h20.896v8C412.002,373.255,422.747,384,436.002,384z M355.57,296H252.002v-43.88l38.976-87.032l22.72,10.024l0.896-2.04L355.57,296z
	 M284.482,82.736l-29.344,66.552l21.2,9.344l-24.336,54.344V72h-64v224H84.434l82.664-248h105.808L284.482,82.736z M236.002,104h-32
	V88h32V104z M204.002,120h32v16h-32V120z M204.002,152h32v16h-32V152z M204.002,184h32v16h-32V184z M204.002,216h32v16h-32V216z
	 M204.002,248h32v0.704L229.154,264h-25.152V248z M204.002,280h17.984l-7.2,16h-10.784L204.002,280z M236.002,287.848V296h-3.656
	L236.002,287.848z M305.506,154.016l-29.272-12.912l19.368-43.92l29.272,12.912L305.506,154.016z M262.234,16l5.336,16h-95.136
	l5.336-16H262.234z M84.002,456c0,4.418-3.582,8-8,8s-8-3.582-8-8v-8h16V456z M372.002,456c0,4.418-3.582,8-8,8s-8-3.582-8-8v-8h16
	V456z M388.002,432H39.098l40-120h281.808l40,120H388.002z M428.002,328c0-4.418,3.582-8,8-8s8,3.582,8,8v32c0,4.418-3.582,8-8,8
	s-8-3.582-8-8V328z"/>
<g>
</g>
<g>
</g>
<g>
</g>
<g>
</g>
<g>
</g>
<g>
</g>
<g>
</g>
<g>
</g>
<g>
</g>
<g>
</g>
<g>
</g>
<g>
</g>
<g>
</g>
<g>
</g>
<g>
</g>
</svg>
