<?xml version="1.0" encoding="iso-8859-1"?>
<!-- Generator: Adobe Illustrator 19.0.0, SVG Export Plug-In . SVG Version: 6.00 Build 0)  -->
<svg version="1.1" id="Capa_1" xmlns="http://www.w3.org/2000/svg" xmlns:xlink="http://www.w3.org/1999/xlink" x="0px" y="0px"
	 viewBox="0 0 480.023 480.023" style="enable-background:new 0 0 480.023 480.023;" xml:space="preserve">
<path id="SVGCleanerId_0" style="fill:#4398D1;" d="M136.023,56v262.704c-40.494-17.673-87.648,0.827-105.321,41.321
	s0.827,87.648,41.321,105.321s87.648-0.827,105.321-41.321c4.408-10.101,6.682-21.004,6.679-32.025V152l224-32v158.704
	c-40.494-17.674-87.648,0.825-105.322,41.319s0.825,87.648,41.319,105.322s87.648-0.825,105.322-41.319
	c3.331-7.633,5.451-15.739,6.281-24.026h0.4V8L136.023,56z"/>
<g>
	<path id="SVGCleanerId_0_1_" style="fill:#4398D1;" d="M136.023,56v262.704c-40.494-17.673-87.648,0.827-105.321,41.321
		s0.827,87.648,41.321,105.321s87.648-0.827,105.321-41.321c4.408-10.101,6.682-21.004,6.679-32.025V152l224-32v158.704
		c-40.494-17.674-87.648,0.825-105.322,41.319s0.825,87.648,41.319,105.322s87.648-0.825,105.322-41.319
		c3.331-7.633,5.451-15.739,6.281-24.026h0.4V8L136.023,56z"/>
</g>
<g>
	<path style="fill:#3E8CC7;" d="M303.551,385.712c18.595,40.05,66.136,57.443,106.186,38.848
		c25.629-11.899,43.074-36.443,45.886-64.56h0.4v-89.68C420.276,325.449,366.317,366.286,303.551,385.712z"/>
	<path style="fill:#3E8CC7;" d="M39.439,439.08c25.966,35.704,75.959,43.599,111.663,17.633
		c20.702-15.056,32.942-39.115,32.921-64.713v-56.592C148.298,384.682,97.57,421.055,39.439,439.08z"/>
</g>
<path d="M376.023,264c-48.601-0.001-88.001,39.397-88.002,87.998c-0.001,48.601,39.397,88.001,87.998,88.002
	c44.216,0.001,81.568-32.809,87.268-76.656c0.486-1.048,0.737-2.189,0.736-3.344V8c0-4.418-3.582-8-8-8
	c-0.396,0-0.792,0.029-1.184,0.088l-320,48c-3.917,0.586-6.816,3.951-6.816,7.912v251.336C81.264,294.081,32.613,321.241,19.359,368
	s13.905,95.409,60.664,108.664c46.759,13.255,95.409-13.905,108.664-60.664c2.213-7.808,3.336-15.884,3.336-24V158.936l208-29.712
	v138.112C392.216,265.115,384.139,263.992,376.023,264z M413.263,113.96c-1.758-1.529-4.095-2.215-6.4-1.88l-224,32
	c-3.93,0.576-6.842,3.948-6.84,7.92v240c0.038,39.804-32.2,72.103-72.004,72.14s-72.103-32.2-72.14-72.004s32.2-72.103,72.004-72.14
	c9.96-0.009,19.814,2.046,28.94,6.036c4.049,1.767,8.765-0.083,10.532-4.132c0.44-1.008,0.667-2.096,0.668-3.196V62.888l304-45.6
	v340.208c-0.182,0.556-0.303,1.13-0.36,1.712c-3.947,39.604-39.252,68.509-78.856,64.562c-39.604-3.947-68.509-39.252-64.562-78.856
	c3.947-39.604,39.252-68.509,78.856-64.562c7.493,0.747,14.822,2.663,21.722,5.68c4.049,1.767,8.765-0.083,10.532-4.132
	c0.44-1.008,0.667-2.096,0.668-3.196V120C416.021,117.682,415.014,115.478,413.263,113.96L413.263,113.96z"/>
<g>
</g>
<g>
</g>
<g>
</g>
<g>
</g>
<g>
</g>
<g>
</g>
<g>
</g>
<g>
</g>
<g>
</g>
<g>
</g>
<g>
</g>
<g>
</g>
<g>
</g>
<g>
</g>
<g>
</g>
</svg>
