<?xml version="1.0" encoding="iso-8859-1"?>
<!-- Generator: Adobe Illustrator 19.0.0, SVG Export Plug-In . SVG Version: 6.00 Build 0)  -->
<svg version="1.1" id="Capa_1" xmlns="http://www.w3.org/2000/svg" xmlns:xlink="http://www.w3.org/1999/xlink" x="0px" y="0px"
	 viewBox="0 0 480.008 480.008" style="enable-background:new 0 0 480.008 480.008;" xml:space="preserve">
<path style="fill:#DEDEDE;" d="M8.004,264.008h464v96h-464V264.008z"/>
<path style="fill:#C7C7C7;" d="M8.004,264.008h464v32h-464V264.008z"/>
<g>
	<path style="fill:#666666;" d="M40.004,472.008h-32v-112h48L40.004,472.008z"/>
	<path style="fill:#666666;" d="M440.004,472.008h32v-112h-48L440.004,472.008z"/>
</g>
<g>
	<path style="fill:#737373;" d="M40.004,296.008h16v40h-16V296.008z"/>
	<path style="fill:#737373;" d="M72.004,296.008h16v40h-16V296.008z"/>
	<path style="fill:#737373;" d="M104.004,296.008h16v40h-16V296.008z"/>
	<path style="fill:#737373;" d="M136.004,296.008h16v40h-16V296.008z"/>
	<path style="fill:#737373;" d="M168.004,296.008h16v40h-16V296.008z"/>
	<path style="fill:#737373;" d="M200.004,296.008h16v40h-16V296.008z"/>
	<path style="fill:#737373;" d="M232.004,296.008h16v40h-16V296.008z"/>
	<path style="fill:#737373;" d="M264.004,296.008h16v40h-16V296.008z"/>
	<path style="fill:#737373;" d="M296.004,296.008h16v40h-16V296.008z"/>
	<path style="fill:#737373;" d="M328.004,296.008h16v40h-16V296.008z"/>
	<path style="fill:#737373;" d="M360.004,296.008h16v40h-16V296.008z"/>
	<path style="fill:#737373;" d="M392.004,296.008h16v40h-16V296.008z"/>
	<path style="fill:#737373;" d="M424.004,296.008h16v40h-16V296.008z"/>
	<path style="fill:#737373;" d="M472.004,264.008v-48.512c-0.004-43.898-35.59-79.484-79.488-79.488h-32.512
		c-40.289,0-78.227-18.969-102.4-51.2l-19.2-25.6c-24.173-32.231-62.111-51.2-102.4-51.2c-70.692,0-128,57.308-128,128v128H472.004z
		"/>
</g>
<g>
	<path style="fill:#8F8F8F;" d="M113.996,50.776l-4-15.488c8.497-2.182,17.235-3.284,26.008-3.28v16
		C128.581,48.006,121.187,48.936,113.996,50.776z"/>
	<path style="fill:#8F8F8F;" d="M48.004,152.008h-16v-16c0.071-37.14,19.874-71.445,52-90.08l8,13.848
		c-27.181,15.776-43.936,44.804-44,76.232V152.008z"/>
</g>
<path style="fill:#666666;" d="M472.004,215.496c0.004-43.896-35.576-79.484-79.472-79.488c-0.005,0-0.011,0-0.016,0h-32.512
	c-5.585-0.028-11.163-0.423-16.696-1.184c-51.824,62.384-121.152,102.912-187.936,129.184h316.632V215.496z"/>
<g>
	<path style="fill:#545454;" d="M8.004,360.008v24h44.568l3.432-24H8.004z"/>
	<path style="fill:#545454;" d="M472.004,360.008h-48l3.432,24h44.568V360.008z"/>
</g>
<path d="M62.94,368.008h354.128l16,112h46.936V215.496c-0.057-48.295-39.193-87.431-87.488-87.488h-32.512
	c-37.75-0.09-73.278-17.854-96-48l-19.2-25.6c-45.066-60.089-130.311-72.266-190.4-27.2c-34.246,25.684-54.4,65.993-54.4,108.8v344
	H46.94L62.94,368.008z M464.004,464.008H446.94l-13.712-96h30.776V464.008z M16.004,136.008c0-66.274,53.726-120,120-120
	c37.771,0,73.337,17.783,96,48l19.2,25.6c25.751,34.166,66.017,54.299,108.8,54.4h32.512c39.462,0.048,71.44,32.026,71.488,71.488
	v40.512h-448V136.008z M464.004,272.008v16h-448v-16H464.004z M16.004,304.008h24v32h16v-32h16v32h16v-32h16v32h16v-32h16v32h16v-32
	h16v32h16v-32h16v32h16v-32h16v32h16v-32h16v32h16v-32h16v32h16v-32h16v32h16v-32h16v32h16v-32h16v32h16v-32h16v32h16v-32h24v48
	h-448V304.008z M33.068,464.008H16.004v-96H46.78L33.068,464.008z"/>
<path d="M113.996,50.776c7.191-1.84,14.585-2.77,22.008-2.768v-16c-8.767-0.003-17.5,1.099-25.992,3.28L113.996,50.776z"/>
<path d="M32.004,136.008v16h16v-16c0.064-31.428,16.819-60.456,44-76.232l-8-13.848C51.878,64.563,32.075,98.868,32.004,136.008z"/>
<g>
</g>
<g>
</g>
<g>
</g>
<g>
</g>
<g>
</g>
<g>
</g>
<g>
</g>
<g>
</g>
<g>
</g>
<g>
</g>
<g>
</g>
<g>
</g>
<g>
</g>
<g>
</g>
<g>
</g>
</svg>
